<?xml version="1.0" standalone="no"?>
<!DOCTYPE svg PUBLIC "-//W3C//DTD SVG 20010904//EN"
 "http://www.w3.org/TR/2001/REC-SVG-20010904/DTD/svg10.dtd">
<svg version="1.0" xmlns="http://www.w3.org/2000/svg"
 width="512.000000pt" height="512.000000pt" viewBox="0 0 512.000000 512.000000"
 preserveAspectRatio="xMidYMid meet">
<metadata>
Created by potrace 1.14, written by Peter Selinger 2001-2017
</metadata>
<g transform="translate(0.000000,512.000000) scale(0.100000,-0.100000)"
fill="#000000" stroke="none">
<path d="M2059 4749 c-142 -21 -418 -174 -528 -293 -14 -14 -30 -26 -37 -26
-6 0 -47 -18 -90 -40 -120 -60 -199 -146 -244 -265 -34 -92 -34 -243 0 -307
11 -20 11 -20 -55 -42 -145 -48 -278 -178 -330 -321 -23 -64 -30 -249 -12
-320 l13 -50 -47 -43 c-93 -84 -141 -226 -142 -427 -2 -131 9 -186 54 -276
l28 -57 -30 -55 c-157 -291 -85 -603 181 -789 l46 -32 0 -120 c0 -83 6 -141
18 -186 20 -76 75 -194 106 -230 12 -14 32 -36 44 -50 65 -76 183 -154 297
-195 47 -17 91 -42 128 -73 108 -92 226 -152 366 -186 178 -42 336 -12 492 96
101 69 225 214 293 342 l30 58 0 489 0 489 145 0 145 0 0 -200 0 -199 -44 -20
c-181 -80 -219 -329 -70 -460 116 -102 287 -93 388 20 56 62 76 120 72 203 -6
99 -66 191 -150 231 l-36 17 0 209 c0 187 2 209 16 209 28 0 98 50 125 89 35
49 49 94 49 157 l0 54 295 0 295 0 0 -194 0 -194 -45 -22 c-24 -12 -58 -38
-76 -58 -162 -184 -40 -467 201 -466 109 0 190 48 251 149 33 56 34 190 2 251
-28 52 -85 107 -135 130 l-39 17 1 226 c1 124 1 236 1 249 -1 13 -13 34 -27
47 l-27 25 -348 0 -349 0 0 110 0 110 424 0 424 0 27 -47 c35 -58 67 -88 127
-117 93 -45 217 -28 296 40 121 103 128 296 16 408 -133 133 -365 95 -445 -74
l-24 -50 -422 0 -423 0 0 110 0 110 350 0 351 0 24 25 25 24 1 228 c1 125 1
237 0 248 -1 15 9 26 38 38 54 24 109 81 137 141 28 61 29 171 1 226 -64 131
-203 192 -344 152 -59 -17 -147 -100 -170 -160 -22 -57 -22 -163 0 -212 23
-53 80 -114 131 -141 l46 -24 0 -193 0 -192 -297 2 -297 3 -9 38 c-12 51 -85
130 -136 147 l-41 13 0 206 0 206 50 28 c116 65 169 211 121 337 -89 233 -407
243 -516 15 -19 -41 -23 -63 -21 -120 4 -109 59 -195 151 -241 l55 -26 0 -199
0 -199 -145 0 -145 0 0 628 c-1 473 -4 632 -13 648 -37 65 -196 153 -332 184
-63 14 -176 18 -236 9z m222 -169 c49 -12 117 -43 177 -81 l22 -14 0 -602 0
-603 -212 0 c-125 0 -229 -5 -253 -11 -60 -17 -119 -64 -146 -117 l-24 -47 0
-545 c0 -616 -4 -584 80 -657 64 -58 93 -63 339 -63 l216 0 0 -473 0 -473 -38
-63 c-78 -130 -187 -227 -328 -293 -60 -28 -78 -32 -149 -31 -136 2 -260 56
-418 182 -45 37 -89 63 -117 71 -181 48 -325 180 -385 355 -23 66 -30 201 -16
275 17 85 10 102 -64 144 -90 54 -169 135 -210 220 -53 109 -53 217 1 344 l26
62 32 -21 c137 -92 384 -157 454 -120 45 24 51 91 12 126 -10 9 -40 19 -67 21
-57 6 -144 27 -199 50 -44 18 -164 93 -164 103 0 3 -16 23 -34 45 -65 73 -87
212 -60 376 19 122 59 186 138 219 62 27 75 58 51 125 -51 146 -42 309 22 395
59 81 120 123 233 160 151 50 276 49 378 -1 53 -27 125 -96 148 -141 38 -74
90 -97 141 -62 59 42 27 131 -88 248 -105 105 -226 154 -377 153 l-82 -1 -12
35 c-7 19 -12 64 -12 100 0 121 70 226 189 285 131 64 280 21 424 -121 41 -41
79 -74 85 -75 6 0 20 -2 30 -4 11 -2 31 9 49 26 24 24 28 35 23 60 -13 69
-139 184 -267 246 -43 21 -78 40 -79 43 0 10 125 86 188 114 118 52 228 63
343 36z m779 -526 c42 -26 63 -68 56 -116 -17 -120 -175 -144 -222 -33 -18 44
-18 59 2 100 27 58 108 82 164 49z m960 -233 c37 -27 51 -60 47 -110 -9 -82
-87 -126 -166 -90 -29 13 -44 28 -56 55 -47 112 77 215 175 145z m-923 -724
c17 -16 18 -53 21 -520 1 -276 0 -512 -3 -524 -12 -52 -25 -53 -555 -53 -529
0 -540 1 -554 52 -3 13 -6 246 -6 518 0 454 2 497 18 516 9 12 24 24 32 27 8
3 243 5 522 4 472 -2 509 -3 525 -20z m1374 -388 c38 -27 53 -83 37 -130 -32
-92 -169 -104 -213 -19 -59 115 70 225 176 149z m-434 -1134 c82 -95 -1 -225
-122 -191 -72 21 -104 116 -60 179 41 59 137 65 182 12z m-971 -310 c73 -47
66 -162 -13 -203 -47 -25 -115 -8 -150 38 -6 8 -15 31 -18 52 -17 98 96 169
181 113z"/>
<path d="M1192 2903 c-27 -5 -54 -44 -54 -77 0 -44 95 -154 195 -226 38 -27
47 -39 42 -55 -11 -37 -23 -91 -30 -130 -7 -42 -8 -184 -1 -226 3 -19 8 -50
10 -69 11 -77 60 -221 109 -320 45 -90 56 -106 82 -112 44 -11 82 8 95 47 10
30 7 42 -21 102 -43 91 -73 174 -95 258 -22 83 -26 305 -6 372 12 39 14 41 40
34 80 -22 150 20 138 83 -9 45 -24 55 -115 81 -107 30 -179 75 -260 161 -66
72 -87 85 -129 77z"/>
<path d="M1233 1410 c-27 -11 -43 -40 -43 -77 0 -21 14 -41 58 -83 208 -197
529 -220 711 -49 49 45 56 94 19 129 -33 31 -75 25 -138 -19 -94 -66 -183 -81
-300 -51 -41 11 -145 73 -188 112 -53 47 -77 55 -119 38z"/>
<path d="M2203 2948 c-12 -6 -26 -22 -32 -37 -10 -26 -15 -641 -5 -692 10 -54
29 -57 384 -58 179 0 337 2 351 5 55 11 58 29 58 389 0 181 -2 340 -5 352 -12
47 -42 51 -398 51 -202 0 -340 -4 -353 -10z m592 -388 l0 -235 -235 0 -235 0
-1 236 -1 237 236 -2 236 -1 0 -235z"/>
</g>
</svg>
